<svg version="1.1" id="Layer_1" xmlns="http://www.w3.org/2000/svg" x="0" y="0" viewBox="0 0 256 256" style="enable-background:new 0 0 256 256" xml:space="preserve"><style>.st3{fill:#fc5d3d}.st5{fill:#ffcbc3}.st8{fill:#efefef}.st10{fill:#fff}</style><path class="st3" d="M214.443 223.288v20.067a5.145 5.145 0 0 1-5.145 5.145H46.703a5.145 5.145 0 0 1-5.145-5.145v-20.067a5.145 5.145 0 0 1 5.145-5.145h162.595a5.144 5.144 0 0 1 5.145 5.145z"/><path class="st5" d="M204.443 241H65.8a2.5 2.5 0 1 1 0-5h136.143v-7.857a2.5 2.5 0 1 1 5 0V238.5a2.5 2.5 0 0 1-2.5 2.5zM55.8 241h-4.243a2.5 2.5 0 1 1 0-5H55.8a2.5 2.5 0 1 1 0 5z"/><path class="st3" d="M194.15 218.142H61.851l18.122-61.272 8.727-29.483 8.716-29.494 8.727-29.483 16.924-57.225c1.454-4.915 8.415-4.915 9.868 0l16.924 57.225 8.727 29.483 8.716 29.494 8.727 29.483 18.121 61.272z"/><path class="st5" d="M155.83 129.89a2.52 2.52 0 0 1-2.4-1.79l-8.72-29.5a2.496 2.496 0 0 1 1.689-3.109c1.301-.381 2.73.409 3.11 1.689l8.72 29.5c.465 1.56-.687 3.21-2.399 3.21zM177.02 207.85l-14.87-50.27a2.51 2.51 0 0 1 1.69-3.11c1.3-.38 2.729.41 3.11 1.69l14.869 50.27a2.502 2.502 0 0 1-1.689 3.11c-1.3.391-2.72-.371-3.11-1.69zM138.39 70.91c-1.1 0-2.09-.74-2.399-1.79L125.6 34a2.51 2.51 0 0 1 1.69-3.11c1.3-.38 2.729.41 3.109 1.69L140.79 67.7a2.501 2.501 0 0 1-2.4 3.21z"/><path class="st8" d="M158.585 97.894H97.416l8.727-29.483h43.715z"/><path class="st10" d="m144.71 98.6-8.72-29.479a2.509 2.509 0 0 1 1.689-3.11c1.3-.38 2.73.41 3.11 1.69l8.72 29.479a2.507 2.507 0 0 1-1.69 3.11c-1.293.391-2.719-.369-3.109-1.69z"/><path class="st8" d="M176.027 156.871H79.973l8.727-29.483h78.601z"/><path class="st10" d="m162.15 157.58-8.72-29.48c-.4-1.35.39-2.725 1.69-3.109 1.3-.381 2.729.409 3.109 1.689l8.71 29.48c.403 1.288-.334 2.711-1.68 3.109-1.277.392-2.715-.356-3.109-1.689z"/><circle cx="89.72" cy="218.14" r="2.5"/><path d="m120.67 10.479-7.32 24.761a2.494 2.494 0 0 0 1.68 3.1c1.3.39 2.73-.4 3.11-1.69v-.01l7.32-24.74c.797-2.539 4.284-2.537 5.08 0l15.975 54.011h-37.027l2.982-10.08c.39-1.32-.37-2.71-1.69-3.101-1.29-.39-2.73.4-3.1 1.681L59.98 215.64H46.7c-4.21 0-7.64 3.43-7.64 7.65v20.069c0 4.21 3.43 7.641 7.64 7.641h162.6c4.21 0 7.64-3.431 7.64-7.641V223.29c0-4.221-3.43-7.65-7.64-7.65h-13.28L135.33 10.48c-2.117-7.324-12.561-7.289-14.66-.001zm52.009 143.891H156.03a2.5 2.5 0 0 0 0 5h18.127l16.643 56.27H99.72a2.5 2.5 0 0 0 0 5H209.3c1.45.01 2.64 1.19 2.64 2.65v20.069A2.65 2.65 0 0 1 209.3 246H46.7a2.65 2.65 0 0 1-2.64-2.641V223.29c0-1.46 1.19-2.641 2.64-2.65h33.02a2.5 2.5 0 0 0 0-5H65.197l16.645-56.27h54.189a2.5 2.5 0 0 0 0-5h-52.71l7.242-24.48h74.876l7.24 24.48zm-8.72-29.48H92.041l7.247-24.5h57.424l7.247 24.5zm-8.725-29.5h-54.466l7.241-24.479h39.985l7.24 24.479z"/><path d="M112.2 47.93c1.277.391 2.707-.346 3.1-1.689.39-1.32-.36-2.71-1.68-3.101-1.3-.39-2.73.4-3.11 1.68a2.496 2.496 0 0 0 1.69 3.11z"/><circle cx="146.03" cy="156.87" r="2.5"/></svg>
